<?xml version="1.0" encoding="UTF-8"?>
<svg width="1641px" height="1609px" viewBox="0 0 1641 1609" version="1.1" xmlns="http://www.w3.org/2000/svg" xmlns:xlink="http://www.w3.org/1999/xlink">
    <title>Group</title>
    <defs>
        <path d="M832.5,1559 C1263.00596,1559 1612,1210.00596 1612,779.5 C1612,348.994038 1263.00596,0 832.5,0 C401.994038,0 53,348.994038 53,779.5 C53,1210.00596 401.994038,1559 832.5,1559 Z" id="path-1"></path>
        <mask id="mask-2" maskContentUnits="userSpaceOnUse" maskUnits="objectBoundingBox" x="0" y="0" width="1559" height="1559" fill="white">
            <use xlink:href="#path-1"></use>
        </mask>
        <path d="M832.5,1278 C1126.59163,1278 1365,1039.59163 1365,745.5 C1365,451.408371 1126.59163,213 832.5,213 C538.408371,213 300,451.408371 300,745.5 C300,1039.59163 538.408371,1278 832.5,1278 Z" id="path-3"></path>
        <mask id="mask-4" maskContentUnits="userSpaceOnUse" maskUnits="objectBoundingBox" x="0" y="0" width="1065" height="1065" fill="white">
            <use xlink:href="#path-3"></use>
        </mask>
        <path d="M833,1061 C1007.52198,1061 1149,919.521981 1149,745 C1149,570.478019 1007.52198,429 833,429 C658.478019,429 517,570.478019 517,745 C517,919.521981 658.478019,1061 833,1061 Z" id="path-5"></path>
        <mask id="mask-6" maskContentUnits="userSpaceOnUse" maskUnits="objectBoundingBox" x="0" y="0" width="632" height="632" fill="white">
            <use xlink:href="#path-5"></use>
        </mask>
    </defs>
    <g id="Page-1" stroke="none" stroke-width="1" fill="none" fill-rule="evenodd">
        <g id="Artboard" transform="translate(-513, -250)">
            <g id="Group" transform="translate(513, 250)">
                <use id="Oval" stroke="#7D45D3" mask="url(#mask-2)" stroke-width="4" stroke-dasharray="19" xlink:href="#path-1"></use>
                <use id="Oval" stroke="#7D45D3" mask="url(#mask-4)" stroke-width="4" stroke-dasharray="19" xlink:href="#path-3"></use>
                <use id="Oval" stroke="#7D45D3" mask="url(#mask-6)" stroke-width="4" stroke-dasharray="19" xlink:href="#path-5"></use>
                <g id="php-(1)" transform="translate(1460, 1113)" fill="#553A7C" fill-rule="nonzero">
                    <path d="M61.094,0 C27.354,0 0,13.862 0,30.961 C0,48.06 27.354,61.922 61.094,61.922 C94.834,61.922 122.188,48.06 122.188,30.961 C122.188,13.862 94.834,0 61.094,0 Z M45.197,36.993 C43.739,38.357 42.12,38.92 40.337,39.5 C38.554,40.081 36.285,39.961 33.526,39.961 L27.273,39.961 L25.54,49.961 L18.239,49.961 L24.754,15.961 L38.794,15.961 C43.018,15.961 46.099,17.176 48.036,19.393 C49.973,21.61 50.555,24.757 49.783,28.73 C49.464,30.367 48.927,31.889 48.169,33.245 C47.41,34.602 46.419,35.869 45.197,36.993 L45.197,36.993 Z M66.508,39.961 L69.389,25.541 C69.717,23.853 69.597,22.599 69.028,21.986 C68.458,21.372 67.246,20.961 65.393,20.961 L59.603,20.961 L55.872,39.961 L48.628,39.961 L55.143,6.961 L62.387,6.961 L60.655,15.961 L67.108,15.961 C71.169,15.961 73.969,16.776 75.51,18.192 C77.051,19.608 77.513,21.548 76.897,24.72 L73.866,39.961 L66.508,39.961 L66.508,39.961 Z M106.767,28.783 C106.449,30.42 105.911,31.916 105.154,33.271 C104.396,34.628 103.406,35.869 102.183,36.993 C100.725,38.357 99.105,38.92 97.323,39.5 C95.541,40.081 93.27,39.961 90.511,39.961 L84.258,39.961 L82.526,49.961 L75.225,49.961 L81.739,15.961 L95.78,15.961 C100.004,15.961 103.085,17.176 105.021,19.393 C106.956,21.61 107.539,24.811 106.767,28.783 Z M93.013,20.961 L88.012,20.961 L85.285,34.961 L89.727,34.961 C92.669,34.961 94.863,34.671 96.303,33.561 C97.745,32.453 98.716,30.733 99.221,28.14 C99.705,25.649 99.485,23.706 98.561,22.682 C97.636,21.658 95.787,20.961 93.013,20.961 L93.013,20.961 Z M36.028,20.961 L31.026,20.961 L28.299,34.961 L32.74,34.961 C35.683,34.961 37.876,34.671 39.317,33.561 C40.758,32.453 41.73,30.733 42.234,28.14 C42.718,25.649 42.498,23.706 41.574,22.682 C40.65,21.658 38.802,20.961 36.028,20.961 Z" id="Shape"></path>
                </g>
                <g id="react-(2)" transform="translate(1223, 1355)" fill="#553A7C" fill-rule="nonzero">
                    <circle id="Oval" cx="62.6" cy="55.9" r="11.4"></circle>
                    <path d="M105.9,37.1 C103.7,36.3 101.4,35.5 99,34.8 C99.6,32.4 100.1,30 100.5,27.7 C102.6,14.5 100.3,5.2 93.9,1.6 C92,0.5 89.9,0 87.5,0 C80.5,0 71.6,5.2 62.6,13.9 C53.6,5.2 44.7,0 37.7,0 C35.3,0 33.2,0.5 31.3,1.6 C24.9,5.3 22.6,14.6 24.7,27.7 C25.1,30 25.6,32.4 26.2,34.8 C23.8,35.5 21.5,36.2 19.3,37.1 C6.8,41.9 0,48.5 0,55.9 C0,63.3 6.9,69.9 19.3,74.7 C21.5,75.5 23.8,76.3 26.2,77 C25.6,79.4 25.1,81.8 24.7,84.1 C22.6,97.3 24.9,106.6 31.3,110.2 C33.2,111.3 35.3,111.8 37.7,111.8 C44.8,111.8 53.7,106.6 62.6,97.9 C71.6,106.6 80.5,111.8 87.5,111.8 C89.9,111.8 92,111.3 93.9,110.2 C100.3,106.5 102.6,97.2 100.5,84.1 C100.1,81.8 99.6,79.4 99,77 C101.4,76.3 103.7,75.6 105.9,74.7 C118.4,69.9 125.2,63.3 125.2,55.9 C125.2,48.5 118.4,41.9 105.9,37.1 Z M91.1,6.6 C95.2,9 96.6,16.4 94.9,26.9 C94.6,29 94.1,31.2 93.5,33.5 C88.3,32.3 82.8,31.5 77,31 C73.6,26.2 70.1,21.9 66.6,18 C74,10.7 81.5,5.7 87.6,5.7 C88.9,5.7 90.1,6 91.1,6.6 L91.1,6.6 Z M79.9,65.9 C78.1,69.1 76,72.3 73.8,75.5 C70.1,75.8 66.4,75.9 62.6,75.9 C58.7,75.9 55,75.8 51.4,75.5 C49.2,72.3 47.2,69.1 45.4,65.9 C43.5,62.6 41.7,59.2 40.1,55.9 C41.7,52.6 43.5,49.2 45.4,45.9 C47.2,42.7 49.3,39.5 51.5,36.3 C55.2,36 58.9,35.9 62.7,35.9 C66.6,35.9 70.3,36 73.9,36.3 C76.1,39.5 78.1,42.7 79.9,45.9 C81.8,49.2 83.6,52.6 85.2,55.9 C83.5,59.2 81.8,62.5 79.9,65.9 Z M88.2,62.6 C89.7,66.1 90.9,69.5 92,72.9 C88.6,73.7 85,74.3 81.2,74.8 C82.4,72.9 83.7,70.9 84.8,68.8 C86,66.7 87.1,64.6 88.2,62.6 Z M62.6,89.7 C60.2,87.1 57.9,84.3 55.7,81.4 C58,81.5 60.3,81.6 62.6,81.6 C64.9,81.6 67.2,81.5 69.5,81.4 C67.3,84.3 65,87.1 62.6,89.7 Z M44,74.7 C40.2,74.2 36.6,73.6 33.2,72.8 C34.3,69.5 35.5,66 37,62.5 C38.1,64.5 39.2,66.6 40.4,68.6 C41.6,70.8 42.8,72.7 44,74.7 L44,74.7 Z M37,49.2 C35.5,45.7 34.3,42.3 33.2,38.9 C36.6,38.1 40.2,37.5 44,37 C42.8,38.9 41.5,40.9 40.4,43 C39.2,45.1 38.1,47.2 37,49.2 L37,49.2 Z M62.6,22.1 C65,24.7 67.3,27.5 69.5,30.4 C67.2,30.3 64.9,30.2 62.6,30.2 C60.3,30.2 58,30.3 55.7,30.4 C57.9,27.5 60.2,24.7 62.6,22.1 Z M84.8,43.1 L81.2,37.1 C85,37.6 88.6,38.2 92,39 C90.9,42.3 89.7,45.8 88.2,49.3 C87.1,47.2 86,45.1 84.8,43.1 L84.8,43.1 Z M30.3,26.9 C28.6,16.4 30,9 34.1,6.6 C35.1,6 36.3,5.7 37.6,5.7 C43.6,5.7 51.1,10.6 58.6,18 C55.1,21.8 51.6,26.2 48.2,31 C42.4,31.5 36.9,32.4 31.7,33.5 C31.1,31.2 30.7,29 30.3,26.9 Z M5.6,55.9 C5.6,51.2 11.3,46.2 21.3,42.5 C23.3,41.7 25.5,41 27.7,40.4 C29.3,45.4 31.3,50.7 33.7,56 C31.3,61.3 29.2,66.5 27.7,71.5 C13.9,67.5 5.6,61.5 5.6,55.9 Z M34.1,105.2 C30,102.8 28.6,95.4 30.3,84.9 C30.6,82.8 31.1,80.6 31.7,78.3 C36.9,79.5 42.4,80.3 48.2,80.8 C51.6,85.6 55.1,89.9 58.6,93.8 C51.2,101.1 43.7,106.1 37.6,106.1 C36.3,106.1 35.1,105.8 34.1,105.2 Z M94.9,84.9 C96.6,95.4 95.2,102.8 91.1,105.2 C90.1,105.8 88.9,106.1 87.6,106.1 C81.6,106.1 74.1,101.2 66.6,93.8 C70.1,90 73.6,85.6 77,80.8 C82.8,80.3 88.3,79.4 93.5,78.3 C94.1,80.6 94.5,82.8 94.9,84.9 L94.9,84.9 Z M103.9,69.3 C101.9,70.1 99.7,70.8 97.5,71.4 C95.9,66.4 93.9,61.1 91.5,55.8 C93.9,50.5 96,45.3 97.5,40.3 C111.3,44.3 119.6,50.3 119.6,55.9 C119.6,60.6 113.8,65.6 103.9,69.3 L103.9,69.3 Z" id="Shape"></path>
                </g>
                <g id="javascript" transform="translate(1570, 773)" fill="#553A7C" fill-rule="nonzero">
                    <path d="M0,0 L0,71 L71,71 L71,0 L0,0 Z M37.555592,60.499384 C36.507632,62.628816 34.507136,64.0278 32.189128,64.703152 C28.6272,65.521072 25.220336,65.054744 22.68592,63.53364 C20.989872,62.493064 19.665296,60.891304 18.766152,59.045872 L24.173512,55.734432 C24.220656,55.754312 24.362656,56.011048 24.552368,56.34276 C25.24192,57.498072 25.836616,58.315992 27.00556,58.89024 C28.154056,59.28216 30.675408,59.532648 31.64896,57.511704 C32.243656,56.483624 32.054512,53.179 32.054512,49.522784 C32.053944,43.777464 32.08064,38.056 32.08064,32.376 L38.731352,32.376 C38.731352,38.624 38.765432,44.541424 38.731352,50.638336 C38.745552,54.375776 39.06988,57.707664 37.555592,60.499384 Z M65.145624,58.62044 C62.833864,66.528136 49.944808,66.784872 44.794184,61.560408 C43.705896,60.330688 43.023728,59.68828 42.374504,58.268848 C45.111696,56.694352 45.111696,56.694352 47.775048,55.153368 C49.221744,57.377088 50.559384,58.599992 52.966,59.1004 C56.230864,59.499136 59.515608,58.377336 58.778912,54.909696 C58.021768,52.077648 52.093552,51.388664 48.059048,48.360088 C43.9632,45.609264 43.00328,38.92504 46.369248,35.105808 C47.491048,33.693192 49.404072,32.638984 51.411384,32.132328 L53.506168,31.861392 C57.528176,31.780168 60.042144,32.842328 61.887576,34.903032 C62.401048,35.42332 62.820232,35.984504 63.604072,37.200592 C61.461576,38.566064 61.468392,38.553 58.399488,40.539864 C57.744016,39.127816 56.656296,38.241736 55.506664,37.856632 C53.722008,37.315896 51.471592,37.903776 51.004696,39.789536 C50.842816,40.3706 50.876328,40.911336 51.133632,41.871256 C51.856696,43.52016 54.283192,44.236976 56.459768,45.237224 C62.725376,47.778456 64.841176,50.503152 65.361464,53.746432 C65.86244,56.53872 65.24048,58.350072 65.145624,58.62044 L65.145624,58.62044 Z" id="Shape"></path>
                </g>
                <g id="html-(1)" transform="translate(524, 1441)" fill="#553A7C" fill-rule="nonzero">
                    <path d="M49.1785714,9.075 L53.4285714,15.73 L57.6785714,9.075 L57.6785714,18.15 L63.75,18.15 L63.75,0 L57.6785714,0 L53.4285714,6.655 L49.7857143,0 L43.1071429,0 L43.1071429,18.15 L49.1785714,18.15 L49.1785714,9.075 Z M81.3571429,18.15 L81.3571429,12.1 L72.8571429,12.1 L72.8571429,0 L66.7857143,0 L66.7857143,18.15 L81.3571429,18.15 Z M29.1428571,18.15 L35.2142857,18.15 L35.2142857,6.05 L40.6785714,6.05 L40.6785714,0 L23.6785714,0 L23.6785714,6.05 L29.1428571,6.05 L29.1428571,18.15 Z M9.71428571,12.1 L15.1785714,12.1 L15.1785714,18.15 L21.25,18.15 L21.25,0 L15.1785714,0 L15.1785714,6.05 L9.71428571,6.05 L9.71428571,0 L3.64285714,0 L3.64285714,18.15 L9.71428571,18.15 L9.71428571,12.1 Z M0,24.2 L7.28571429,111.32 L42.5,121 L77.7142857,111.32 L85,24.2 L0,24.2 Z M68.6071429,52.03 L27.3214286,52.03 L28.5357143,62.92 L67.3928571,62.92 L64.3571429,96.195 L42.5,102.245 L20.6428571,96.195 L18.8214286,78.65 L29.75,78.65 L30.3571429,87.725 L42.5,90.75 L54.6428571,87.725 L55.8571429,73.81 L18.2142857,73.81 L15.1785714,41.745 L69.8214286,41.745 L68.6071429,52.03 Z" id="Shape"></path>
                </g>
                <g id="git" transform="translate(0, 996)" fill="#553A7C" fill-rule="nonzero">
                    <path d="M98.3725733,16.8554037 C88.3056037,16.8554037 83.3030233,22.1125215 83.3030233,29.6824554 C83.3030233,34.5554194 85.7385593,38.0075408 88.9631458,39.5875705 C87.3837296,41.0360406 86.0686454,42.3029587 84.8837545,43.552774 C83.6975486,44.8052204 82.9742522,46.1273935 82.9742522,47.5771792 C82.9742522,49.3558637 83.6975486,51.0043043 85.8700677,51.9225896 C83.5673552,54.0985838 82.2496408,55.6772979 82.2496408,58.6413335 C82.2496408,63.8418807 86.7906266,66.8716961 98.7026595,66.8716961 C110.154413,66.8716961 116.799533,62.5946966 116.799533,55.0221315 C116.799533,46.2694777 110.088659,45.9392634 98.7026595,45.2130549 L92.2534865,44.8183764 L94.4260056,41.3294183 C95.6082663,41.6583171 97.5190837,41.9214361 99.6271637,41.9214361 C107.917455,41.9214361 113.643331,37.643121 113.643331,30.3336749 C113.643331,27.3051752 112.14808,25.1989075 110.964505,23.683342 L116.778492,23.2228837 L116.778492,17.3974289 L104.428536,17.3974289 C102.916189,17.3974289 101.202635,16.8554037 98.3725733,16.8554037 L98.3725733,16.8554037 Z M101.334143,54.364334 C104.495605,54.5616733 106.996896,54.6932328 106.996896,56.8034472 C106.996896,60.3542383 101.795738,60.6213041 97.9806782,60.6213041 C93.3726231,60.6213041 90.0165282,59.8293158 90.0165282,57.1968102 C90.0165282,55.8785839 90.871333,54.7603281 91.7287679,53.7078521 L101.334143,54.364334 L101.334143,54.364334 Z M98.7710438,35.0092997 C94.4260056,35.0092997 92.6493268,32.7688414 92.6493268,29.5443179 C92.6493268,25.2646872 95.3465645,23.4860027 98.9669914,23.4860027 C102.717612,23.4860027 104.955885,25.5278062 104.955885,29.4114428 C104.955885,32.8372523 102.454595,35.0092997 98.7710438,35.0092997 Z M128.84176,11.7206363 C132.658134,11.7206363 134.830653,9.54727324 134.830653,5.79256498 C134.830653,2.0431191 132.658134,0 128.84176,0 C125.089824,0 122.917305,2.0431191 122.917305,5.79256498 C122.917305,9.54595764 125.089824,11.7206363 128.84176,11.7206363 Z M133.874587,44.3079255 L133.874587,17.3974289 L121.074872,17.3974289 L120.351576,22.5229872 L123.858905,23.6728172 C124.519078,23.8688409 124.668997,24.2293139 124.668997,24.9528912 L124.668997,44.3079255 C124.668997,45.297253 124.114032,45.4945922 123.192158,45.6274673 L119.40866,46.0879256 L119.40866,51.6029 L139.134924,51.6029 L139.134924,46.0879256 L135.352741,45.6274673 C134.362483,45.4945922 133.874587,45.3643483 133.874587,44.3079255 Z M163.356145,42.9397067 C161.775414,43.5317244 159.894843,43.9908671 158.04978,43.9908671 C154.497737,43.9908671 153.60085,42.4779328 153.60085,38.5929806 L153.60085,22.659809 L162.80644,22.659809 L162.80644,16.0818338 L154.076911,16.0818338 C153.549562,16.0818338 153.60085,16.077887 153.60085,15.6174288 L153.60085,6.87266851 L147.297651,6.87266851 C146.574355,13.4506437 143.080176,16.3396905 137.819839,17.0001192 L137.819839,22.659809 L143.084122,22.659809 C143.61147,22.659809 143.080176,23.1242141 143.080176,23.517577 L143.080176,40.7663436 C143.080176,48.2086648 146.307393,51.3674085 154.137404,51.3674085 C157.890655,51.3674085 162.168624,50.1162776 165,48.7349028 L163.356145,42.9397067 L163.356145,42.9397067 Z M37.528887,1.3550629 C35.7969211,-0.378891373 32.9852711,-0.378891373 31.2519901,1.3550629 L25.004025,7.60545495 L32.9300375,15.5345463 C34.7724705,14.9122698 36.8844958,15.3293135 38.3534448,16.7988331 C39.8289693,18.2762464 40.2432208,20.4075103 39.605405,22.257237 L47.2447292,29.8995286 C49.0937376,29.2627806 51.2254891,29.6745618 52.7010136,31.1532907 C54.7656958,33.2161437 54.7656958,36.5603863 52.7010136,38.6245549 C50.6376465,40.6900391 47.2960175,40.6900391 45.2313353,38.6245549 C43.6795359,37.0708372 43.0956385,34.790911 43.8833739,32.8780358 L36.5583549,25.7514574 L36.5583549,44.507896 C36.5583549,44.7565434 37.7353552,45.0880734 38.1548671,45.5064326 C40.2169192,47.5692856 40.3168656,50.9135282 38.2534984,52.980328 C36.1901313,55.0431811 32.8958453,55.0431811 30.8337933,52.980328 C28.7717412,50.9135282 28.7967278,47.5706012 30.860095,45.5064326 C31.3703476,44.9972973 31.298018,44.611828 32.6131022,44.3539713 L32.6131022,25.4238742 C31.298018,25.1660176 31.3940192,24.7831795 30.8850816,24.271413 C29.3227615,22.7084861 28.9466474,20.4154039 29.7475337,18.4959507 L21.9333033,10.6773694 L1.30094706,31.31774 C-0.43364902,33.0530099 -0.43364902,35.8657521 1.30094706,37.5983908 L31.3927041,67.700521 C33.12467,69.4331597 35.935005,69.4331597 37.669601,67.700521 L67.620644,37.7365283 C69.3526099,36.002574 69.3526099,33.1898318 67.620644,31.4558775 L37.528887,1.3550629 Z" id="Shape"></path>
                </g>
                <g id="tailwind-css" transform="translate(178, 1256)" fill="#553A7C" fill-rule="nonzero">
                    <path d="M137.775,29.291252 C131.512949,27.143103 125.985497,23.2806392 121.8265,18.1467852 C112.537476,6.55512119 98.3891116,-0.10713466 83.5,0.0994023914 C63.0046932,-1.34629113 44.832901,13.1332823 41.75,33.3664675 C47.7575863,23.3544203 59.5653742,18.3476831 70.975,20.9744857 C77.2265716,23.1851501 82.7450148,27.0700961 86.9235,32.2021202 C96.2627846,43.7003758 110.403485,50.2669678 125.25,50 C145.745307,51.4456935 163.917099,36.96612 167,16.7329349 C161.097322,26.8718512 149.230234,31.9712744 137.775,29.291252 L137.775,29.291252 Z M29.225,70.708748 C35.4870508,72.856897 41.0145027,76.7193608 45.1735,81.8532148 C54.462524,93.4448788 68.6108884,100.107135 83.5,99.9005976 C103.995307,101.346291 122.167099,86.8667177 125.25,66.6335325 C119.242414,76.6455797 107.434626,81.6523169 96.025,79.0255143 C89.7734284,76.8148499 84.2549852,72.9299039 80.0765,67.7978798 C70.7135502,56.3298203 56.5885074,49.7704994 41.75,50 C21.2546932,48.5543065 3.08290101,63.03388 0,83.2670651 C5.90267845,73.1281488 17.7697655,68.0287256 29.225,70.708748 L29.225,70.708748 Z" id="Shape"></path>
                </g>
                <g id="css" transform="translate(10, 695)" fill="#553A7C" fill-rule="nonzero">
                    <path d="M0,0 L7.73544271,90.0042411 L42.4484245,100 L77.2583594,89.9888393 L85,0 L0,0 Z M64.3423438,74.7540179 L42.5152734,81.0319196 L20.7211849,74.7265625 L19.2277083,57.3660714 L29.9087109,57.3660714 L30.6686198,66.196875 L42.5301042,69.5814732 L42.5593229,69.6424107 L42.566849,69.6424107 L54.4019922,66.3272321 L55.6442318,52.0089286 L30.7682292,52.0089286 L29.8828125,40.8482143 L56.5883073,40.8482143 L57.5613802,29.4642857 L16.8229167,29.4642857 L15.9375,18.5267857 L69.1908854,18.5267857 L64.3423438,74.7540179 L64.3423438,74.7540179 Z" id="Shape"></path>
                </g>
                <g id="typescript-(1)" transform="translate(107, 374)" fill="#553A7C" fill-rule="nonzero">
                    <path d="M0,35.5 L0,71 L71,71 L71,0 L0,0 L0,35.5 Z M57.21464,32.66 C58.9151671,33.0546292 60.4607394,33.9440251 61.6564,35.216 C62.3146296,35.9012631 62.8868517,36.6642259 63.3604,37.488 C63.3604,37.57888 60.2932,39.65208 58.42448,40.8108 C58.35632,40.85624 58.08368,40.56088 57.78264,40.11216 C57.0892308,38.9156791 55.8304082,38.15867 54.44848,38.10712 C52.29576,37.95944 50.90984,39.08976 50.9212,40.94712 C50.9033996,41.4095552 51.0092795,41.8683681 51.22792,42.27624 C51.69936,43.25888 52.57976,43.84392 55.34024,45.03672 C60.42384,47.22352 62.59928,48.66624 63.95112,50.71672 C65.462,52.98872 65.79712,56.658 64.77472,59.37304 C63.63872,62.32664 60.85552,64.33168 56.91928,64.99624 C55.1214734,65.2021587 53.3050044,65.1830782 51.51192,64.93944 C48.7753892,64.4955148 46.2510268,63.1925539 44.304,61.21904 C43.6508,60.49768 42.37848,58.6176 42.458,58.48128 C42.6653513,58.3273528 42.883665,58.188771 43.1112,58.06664 L45.724,56.56712 L47.76312,55.38568 L48.18912,56.01616 C48.9080607,57.0445802 49.8230003,57.9209147 50.88144,58.59488 C53.15344,59.78768 56.25472,59.62296 57.78832,58.24272 C58.8508692,57.1990261 59.0157824,55.5451144 58.18024,54.31216 C57.61224,53.52264 56.47624,52.85808 53.30112,51.47216 C49.63752,49.89312 48.05848,48.91616 46.61576,47.35984 C45.7151016,46.3328338 45.0501302,45.1211511 44.66752,43.80984 C44.3821256,42.3117111 44.3399318,40.7773895 44.54256,39.26584 C45.298,35.7272 47.95056,33.2564 51.82432,32.52368 C53.6183033,32.3017057 55.4355017,32.3514919 57.21464,32.67136 L57.21464,32.66 Z M40.54952,35.63632 L40.54952,38.54448 L31.33088,38.54448 L31.33088,64.80312 L24.7932,64.80312 L24.7932,38.5388 L15.55184,38.5388 L15.55184,35.6988 C15.527033,34.7211216 15.5535762,33.7428149 15.63136,32.76792 C15.66544,32.72248 21.31136,32.69976 28.12736,32.71112 L40.51544,32.71112 L40.54952,35.63632 Z" id="Shape"></path>
                </g>
                <g id="github-(3)" transform="translate(1105, 19)" fill="#553A7C" fill-rule="nonzero">
                    <path d="M43.9996357,0 C19.702493,0 0,19.7379676 0,44.0886402 C0,63.5688863 12.6072348,80.0944604 30.0896363,85.9249546 C32.2878694,86.3338047 33.0951754,84.9685374 33.0951754,83.8040448 C33.0951754,82.752716 33.0543729,79.2796806 33.0354289,75.5956494 C20.7946877,78.2626661 18.2117456,70.3937622 18.2117456,70.3937622 C16.2102387,65.297738 13.3263784,63.9426921 13.3263784,63.9426921 C9.33356517,61.2063169 13.6272966,61.2632639 13.6272966,61.2632639 C18.0448927,61.5735519 20.3720907,65.8066104 20.3720907,65.8066104 C24.2964141,72.5453358 30.6652426,70.5974572 33.1760517,69.4716593 C33.5709614,66.6221203 34.7112447,64.6764319 35.9695637,63.5754571 C26.1966434,62.4620707 15.9224356,58.6809376 15.9224356,41.7873984 C15.9224356,36.9739188 17.6419683,33.040927 20.4566101,29.9526488 C19.9990396,28.8429128 18.4929912,24.3587036 20.8821216,18.2858198 C20.8821216,18.2858198 24.5762024,17.1008846 32.9844258,22.8050733 C36.4948956,21.8274836 40.2596521,21.3361334 43.9996357,21.3193413 C47.7374335,21.3361334 51.5043758,21.8260234 55.0214031,22.8036131 C63.4194259,17.0994244 67.109135,18.2843596 67.109135,18.2843596 C69.5040943,24.3565133 67.998046,28.8414527 67.541204,29.9511886 C70.3624034,33.0394669 72.0695497,36.9724586 72.0695497,41.7859382 C72.0695497,58.7196323 61.7763978,62.4474689 51.9787046,63.5396827 C53.5576144,64.9078703 54.9638425,67.591679 54.9638425,71.7042728 C54.9638425,77.6033953 54.9128394,82.3511669 54.9128394,83.8033147 C54.9128394,84.9765684 55.7055731,86.3513268 57.9351367,85.9183838 C75.4073375,80.0820489 88,63.5615854 88,44.0886402 C88,19.7394278 68.2989642,0 43.9996357,0 L43.9996357,0 Z" id="Path"></path>
                    <path d="M17.1580101,63.8135459 C17.0628421,64.0522999 16.7251031,64.1239261 16.4174171,63.9607775 C16.1025756,63.8047915 15.9272661,63.4792902 16.0288741,63.2397404 C16.1218954,62.9930279 16.46035,62.9253809 16.7730448,63.0901212 C17.0878863,63.246903 17.2667735,63.5755877 17.1572946,63.8143417 L17.1580101,63.8135459 Z M18.9082426,65.9854116 C18.7028801,66.1979026 18.3000261,66.0992176 18.0266864,65.7625745 C17.7433291,65.4283189 17.6903785,64.9802571 17.9000343,64.7645827 C18.1132678,64.5528875 18.5039575,64.6531641 18.7873148,64.9874198 C19.0692411,65.3264505 19.1250539,65.7705329 18.9089581,65.9862074 L18.9082426,65.9854116 Z M20.6126799,68.7525706 C20.3479268,68.9578991 19.9143042,68.7661 19.646689,68.3387303 C19.3819359,67.9105648 19.3819359,67.3972436 19.6538445,67.192711 C19.9207442,66.9873826 20.3479268,67.1728149 20.6198354,67.5962053 C20.8831574,68.0299418 20.8831574,68.5432629 20.6126799,68.7517748 L20.6126799,68.7525706 Z M22.9460846,71.4274114 C22.7099535,71.7178955 22.2047761,71.6399025 21.8355529,71.2443667 C21.4584586,70.8567893 21.3532729,70.3052676 21.5901196,70.0155794 C21.830544,69.7242995 22.3378681,69.8054758 22.709238,70.1986241 C23.0863322,70.5854056 23.2001045,71.1377232 22.9475157,71.4266156 L22.9460846,71.4274114 Z M26.1660544,72.9801084 C26.0608687,73.3565439 25.5757266,73.5276509 25.0855757,73.3668899 C24.5968558,73.2021496 24.2770055,72.7620464 24.3771823,72.3816317 C24.4773592,72.0020128 24.966079,71.824539 25.4590922,71.995646 C25.947812,72.1595904 26.2676623,72.5973061 26.1660544,72.9801084 Z M29.7030123,73.2674091 C29.7151766,73.6637407 29.3001583,73.9916296 28.7871098,73.999588 C28.269768,74.0131174 27.8511719,73.6915954 27.8461631,73.3016305 C27.8461631,72.9013196 28.2525948,72.5774099 28.7692211,72.5662681 C29.2822696,72.5559221 29.7037278,72.8742608 29.7037278,73.2666132 L29.7030123,73.2674091 Z M32.9931058,72.6450569 C33.054643,73.0310426 32.6975842,73.4281701 32.1873978,73.5340177 C31.6865137,73.6374778 31.2214069,73.3971321 31.1570075,73.0143298 C31.0954703,72.6179981 31.4589691,72.2208706 31.9598533,72.1182064 C32.4707552,72.0203172 32.9287064,72.2535003 32.9931058,72.6458528 L32.9931058,72.6450569 Z" id="Shape"></path>
                </g>
                <g id="figma" transform="translate(1365, 182)" fill="#553A7C" fill-rule="nonzero">
                    <circle id="Oval" cx="44.5" cy="44.5" r="14.5"></circle>
                    <path d="M0,73.3406667 C0,81.4513333 6.6043125,88 14.7463125,88 C22.8883125,88 29.4889375,81.433 29.4889375,73.3406667 L29.4889375,29.337 L44.25,29.337 L44.2536875,29.3406667 C52.399375,29.3406667 59,22.77 59,14.6776667 C59,6.58533333 52.3956875,0 44.2536875,0 L14.7463125,0 C6.600625,0 0,6.567 0,14.6593333 C0,22.7516667 6.6043125,29.3186667 14.7463125,29.3186667 C6.600625,29.3406667 0,35.904 0,44 C0,52.096 6.6043125,58.6593333 14.7463125,58.6593333 C6.600625,58.6593333 0,65.2263333 0,73.3406667 Z" id="Path"></path>
                </g>
                <g id="openai-(1)" transform="translate(1519, 454)" fill="#553A7C" fill-rule="nonzero">
                    <path d="M32.6094987,22.0660321 L53.9709763,9.67757287 C53.9854881,9.67757287 53.9854881,9.66299822 54,9.66299822 C53.1583113,7.97233789 52.055409,6.44199881 50.7348285,5.11570494 C47.585752,1.95300416 43.23219,0 38.414248,0 C28.8073879,0 21.0145119,7.81201666 21,17.4604402 C21,17.4750149 21,17.4750149 21,17.4895895 L21,42.266508 L32.5659631,49 L32.6094987,22.0660321 Z" id="Path"></path>
                    <path d="M8.57235478,49.8963184 L29.5957735,62 L41,55.461164 L18.1672706,42.2667271 L18.1658426,18.0622117 C18.1729827,18.0493961 18.1601305,18.0422762 18.1672706,18.0308845 C16.3179752,17.9198155 14.4772479,18.1092025 12.7022099,18.584806 C8.46953681,19.7154322 4.66955602,22.460832 2.29903061,26.5561483 C-2.42773994,34.7197256 0.366909593,45.158795 8.54665029,49.8835027 C8.55950254,49.8891986 8.55950254,49.8891986 8.57235478,49.8963184 Z" id="Path"></path>
                    <path d="M53,53 L30.0077896,66.351121 L8.87861001,54.0374867 C8.87143347,54.0244457 8.85851569,54.0316907 8.85133914,54.0200987 C7.82509341,55.5879208 7.0658151,57.3035413 6.5878573,59.104653 C5.44822217,63.3995002 5.93479183,68.1348446 8.3174043,72.3021795 C13.0682762,80.6093183 23.5847831,83.4653048 31.8205846,78.6806942 C31.8335023,78.6734492 31.8335023,78.6734492 31.8449848,78.6662042 L52.9755998,66.349672 L53,53 Z" id="Path"></path>
                    <path d="M55.3905013,66.9339679 L34.0290237,79.3224271 C34.0145119,79.3224271 34.0145119,79.3370018 34,79.3370018 C34.8416887,81.0276621 35.944591,82.5580012 37.2651715,83.8842951 C40.414248,87.0469958 44.76781,89 49.585752,89 C59.1926121,89 66.9854881,81.1879833 67,71.5395598 C67,71.5249851 67,71.5249851 67,71.5104105 L67,46.733492 L55.4340369,40 L55.3905013,66.9339679 Z" id="Path"></path>
                    <path d="M78.453052,39.1179213 C78.4401993,39.1108014 78.4401993,39.1108014 78.4287747,39.1036816 L57.4046237,27 L46,33.538836 L68.8335247,46.7332729 L68.8335247,70.9377883 C68.8263843,70.9506039 68.839237,70.9577238 68.8320966,70.9691155 C70.6814565,71.0801845 72.5222478,70.8907975 74.2973477,70.415194 C78.5301682,69.2845678 82.3302813,66.539168 84.7008893,62.4438517 C89.4278245,54.2816984 86.6330776,43.842629 78.453052,39.1179213 Z" id="Path"></path>
                    <path d="M79.1213021,34.9639087 C79.1284788,34.9769504 79.141397,34.969705 79.1485738,34.9812976 C80.1748509,33.4133944 80.9341524,31.6991342 81.4121248,29.8964802 C82.5517947,25.6014106 82.0652102,20.8658212 79.6825249,16.6982706 C74.931508,8.39070192 64.4146798,5.53456763 56.1786269,10.3194258 C56.1657087,10.3266712 56.1657087,10.3266712 56.1542259,10.3339166 L35.0229656,22.6510862 L35,36 L57.9929125,22.6481881 L79.1213021,34.9639087 Z" id="Path"></path>
                </g>
                <g id="wordpress-(1)" transform="translate(873, 1484)" fill="#553A7C">
                    <path d="M62.2090054,124.621063 C96.4840054,124.568997 124.230005,96.6879966 124.230005,62.2959966 C124.230005,28.4629966 96.6120054,0.598996566 63.6170054,0.0099965662 C28.9650054,-0.608003434 0.00900542726,27.5099966 2.71289358e-06,61.6069966 C-0.00999457274,96.6859966 27.6120054,124.670997 62.2090054,124.621063 Z M62.1080054,3.02699317 C95.0150054,3.01599657 121.234005,29.7519966 121.224008,63.3069966 C121.213005,94.9859966 94.2990054,121.486997 62.1320054,121.493998 C29.3610054,121.500997 3.00800543,94.9309966 3.00800543,61.8859966 C3.01000543,29.6929966 29.7740054,3.03799657 62.1080054,3.02699317 Z M37.2720054,34.2929966 C37.8100054,36.0859966 36.3040054,36.7099966 34.7030054,36.8349966 C33.0180054,36.9649966 31.3340054,37.0919966 29.3780054,37.2409966 C35.8340054,56.4749966 42.1930054,75.4239966 48.7030054,94.8139966 C49.1670054,94.0549966 49.3580054,93.8409966 49.4420054,93.5909966 C53.0160054,82.9089966 56.6100054,72.2339966 60.0930054,61.5219966 C60.4110054,60.5449966 60.2530054,59.2509966 59.9050054,58.2469966 C58.0620054,52.9269966 55.8540054,47.7229966 54.2380054,42.3389966 C53.1330054,38.6529966 51.6670054,36.2679966 47.3100054,36.6949966 C46.5680054,36.7679966 45.6620054,35.1709966 44.8310054,34.3459966 C45.8360054,33.7459966 46.8340054,32.6419966 47.8480054,32.6269966 C56.7200054,32.4919966 65.5950054,32.4919966 74.4660054,32.6349966 C75.4840054,32.6519966 76.4820054,33.7849966 77.4870054,34.3999966 C76.6070054,35.2039966 75.8480054,36.4099966 74.8190054,36.7209966 C73.1680054,37.2189966 71.3370054,37.1249966 69.3610054,37.3009966 C75.8240054,56.5259966 82.1540054,75.3579966 88.7100054,94.8609966 C91.6410054,85.1249966 94.3680054,76.1849966 97.0200054,67.2219966 C99.3860054,59.2209966 97.9760054,51.7489966 93.6980054,44.7019966 C92.4120054,42.5829966 90.8320054,40.5269966 90.1030054,38.2159966 C89.2750054,35.5869966 88.5870054,32.5939966 89.0260054,29.9569966 C89.7710054,25.4879966 93.2000054,23.2689966 97.8400054,22.8439966 C72.4480054,-0.722003434 32.5460054,7.71399657 17.8430054,33.3189966 C23.5030054,33.0579966 28.9070054,32.7149966 34.3150054,32.6409966 C35.3370054,32.6279966 37.0320054,33.4919966 37.2720054,34.2929966 Z M47.3890054,112.263997 C47.2710054,112.608997 47.2640054,112.992997 47.1710054,113.565997 C58.1140054,116.599997 68.8460054,116.380997 79.8300054,112.679997 L63.0500054,66.7199966 C57.6800054,82.3309966 52.5300054,97.2949966 47.3890054,112.263997 Z M38.9330054,110.185997 L13.6520054,40.8359966 C2.24700543,63.1139966 10.9230054,97.1039966 38.9330054,110.185997 Z M115.361005,65.6239966 C116.163005,55.0899966 112.529005,40.5049966 109.391005,38.4989966 C109.041005,42.3739966 109.285005,46.6849966 108.173005,50.6129966 C105.556005,59.8679966 102.356005,68.9619966 99.2740054,78.0809966 C95.9240054,87.9929966 92.4420054,97.8599966 89.0170054,107.746997 C105.109005,98.2079966 113.952005,84.1289966 115.361005,65.6239966 L115.361005,65.6239966 Z" id="Shape"></path>
                </g>
            </g>
        </g>
    </g>
</svg>